<?xml version="1.0" encoding="UTF-8" standalone="no"?>
<!DOCTYPE svg PUBLIC "-//W3C//DTD SVG 1.1//EN"
 "http://www.w3.org/Graphics/SVG/1.1/DTD/svg11.dtd">
<!-- Generated by graphviz version 2.47.0 (20210316.0004)
 -->
<!-- Title: dependencies Pages: 1 -->
<svg width="504pt" height="211pt"
 viewBox="0.00 0.00 504.00 211.00" xmlns="http://www.w3.org/2000/svg" xmlns:xlink="http://www.w3.org/1999/xlink">
<g id="graph0" class="graph" transform="scale(1 1) rotate(0) translate(4 207)">
<title>dependencies</title>
<polygon fill="white" stroke="transparent" points="-4,4 -4,-207 500,-207 500,4 -4,4"/>
<text text-anchor="start" x="227.01" y="-42.4" font-family="Times-12" font-weight="bold" font-size="14.00">Legend</text>
<polygon fill="#ffffb3" stroke="transparent" points="14,-10 14,-30 34,-30 34,-10 14,-10"/>
<text text-anchor="start" x="37.63" y="-15.4" font-family="Times-12" font-size="14.00"> &#160;Declarations</text>
<polygon fill="#8dd3c7" stroke="transparent" points="127,-10 127,-30 147,-30 147,-10 127,-10"/>
<text text-anchor="start" x="150.73" y="-15.4" font-family="Times-12" font-size="14.00"> &#160;Module</text>
<polygon fill="#80b1d3" stroke="transparent" points="213,-10 213,-30 233,-30 233,-10 213,-10"/>
<text text-anchor="start" x="236.78" y="-15.4" font-family="Times-12" font-size="14.00"> &#160;Bootstrap</text>
<polygon fill="#fdb462" stroke="transparent" points="310,-10 310,-30 330,-30 330,-10 310,-10"/>
<text text-anchor="start" x="333.67" y="-15.4" font-family="Times-12" font-size="14.00"> &#160;Providers</text>
<polygon fill="#fb8072" stroke="transparent" points="406,-10 406,-30 426,-30 426,-10 406,-10"/>
<text text-anchor="start" x="429.73" y="-15.4" font-family="Times-12" font-size="14.00"> &#160;Exports</text>
<g id="clust1" class="cluster">
<title>cluster_AppModule</title>
<polygon fill="none" stroke="black" stroke-dasharray="1,5" points="40.5,-70 40.5,-195 455.5,-195 455.5,-70 40.5,-70"/>
</g>
<g id="clust3" class="cluster">
<title>cluster_AppModule_imports</title>
<polygon fill="none" stroke="black" points="186.5,-78 186.5,-130 447.5,-130 447.5,-78 186.5,-78"/>
</g>
<g id="clust6" class="cluster">
<title>cluster_AppModule_providers</title>
<polygon fill="none" stroke="black" points="48.5,-78 48.5,-130 178.5,-130 178.5,-78 48.5,-78"/>
</g>
<!-- CategoryModule -->
<g id="node1" class="node">
<title>CategoryModule</title>
<polygon fill="#8dd3c7" stroke="black" points="439.87,-122 436.87,-126 415.87,-126 412.87,-122 329.13,-122 329.13,-86 439.87,-86 439.87,-122"/>
<text text-anchor="middle" x="384.5" y="-99.8" font-family="Times,serif" font-size="14.00">CategoryModule</text>
</g>
<!-- AppModule -->
<g id="node3" class="node">
<title>AppModule</title>
<polygon fill="#8dd3c7" stroke="black" points="294.16,-187 291.16,-191 270.16,-191 267.16,-187 210.84,-187 210.84,-151 294.16,-151 294.16,-187"/>
<text text-anchor="middle" x="252.5" y="-164.8" font-family="Times,serif" font-size="14.00">AppModule</text>
</g>
<!-- CategoryModule&#45;&gt;AppModule -->
<g id="edge1" class="edge">
<title>CategoryModule&#45;&gt;AppModule</title>
<path fill="none" stroke="black" d="M384.5,-122.11C384.5,-141.34 384.5,-169 384.5,-169 384.5,-169 304.27,-169 304.27,-169"/>
<polygon fill="black" stroke="black" points="304.27,-165.5 294.27,-169 304.27,-172.5 304.27,-165.5"/>
</g>
<!-- EmployeeModule -->
<g id="node2" class="node">
<title>EmployeeModule</title>
<polygon fill="#8dd3c7" stroke="black" points="310.81,-122 307.81,-126 286.81,-126 283.81,-122 194.19,-122 194.19,-86 310.81,-86 310.81,-122"/>
<text text-anchor="middle" x="252.5" y="-99.8" font-family="Times,serif" font-size="14.00">EmployeeModule</text>
</g>
<!-- EmployeeModule&#45;&gt;AppModule -->
<g id="edge2" class="edge">
<title>EmployeeModule&#45;&gt;AppModule</title>
<path fill="none" stroke="black" d="M252.5,-122.11C252.5,-122.11 252.5,-140.99 252.5,-140.99"/>
<polygon fill="black" stroke="black" points="249,-140.99 252.5,-150.99 256,-140.99 249,-140.99"/>
</g>
<!-- AppService -->
<g id="node4" class="node">
<title>AppService</title>
<ellipse fill="#fdb462" stroke="black" cx="113.5" cy="-104" rx="56.74" ry="18"/>
<text text-anchor="middle" x="113.5" y="-99.8" font-family="Times,serif" font-size="14.00">AppService</text>
</g>
<!-- AppService&#45;&gt;AppModule -->
<g id="edge3" class="edge">
<title>AppService&#45;&gt;AppModule</title>
<path fill="none" stroke="black" d="M113.5,-122.11C113.5,-141.34 113.5,-169 113.5,-169 113.5,-169 200.8,-169 200.8,-169"/>
<polygon fill="black" stroke="black" points="200.8,-172.5 210.8,-169 200.8,-165.5 200.8,-172.5"/>
</g>
</g>
</svg>
