<?xml version="1.0" encoding="UTF-8" standalone="no"?>
<!DOCTYPE svg PUBLIC "-//W3C//DTD SVG 1.1//EN"
 "http://www.w3.org/Graphics/SVG/1.1/DTD/svg11.dtd">
<!-- Generated by graphviz version 2.47.0 (20210316.0004)
 -->
<!-- Title: dependencies Pages: 1 -->
<svg width="504pt" height="287pt"
 viewBox="0.00 0.00 504.00 287.00" xmlns="http://www.w3.org/2000/svg" xmlns:xlink="http://www.w3.org/1999/xlink">
<g id="graph0" class="graph" transform="scale(1 1) rotate(0) translate(4 283)">
<title>dependencies</title>
<polygon fill="white" stroke="transparent" points="-4,4 -4,-283 500,-283 500,4 -4,4"/>
<text text-anchor="start" x="227.01" y="-42.4" font-family="Times-12" font-weight="bold" font-size="14.00">Legend</text>
<polygon fill="#ffffb3" stroke="transparent" points="14,-10 14,-30 34,-30 34,-10 14,-10"/>
<text text-anchor="start" x="37.63" y="-15.4" font-family="Times-12" font-size="14.00"> &#160;Declarations</text>
<polygon fill="#8dd3c7" stroke="transparent" points="127,-10 127,-30 147,-30 147,-10 127,-10"/>
<text text-anchor="start" x="150.73" y="-15.4" font-family="Times-12" font-size="14.00"> &#160;Module</text>
<polygon fill="#80b1d3" stroke="transparent" points="213,-10 213,-30 233,-30 233,-10 213,-10"/>
<text text-anchor="start" x="236.78" y="-15.4" font-family="Times-12" font-size="14.00"> &#160;Bootstrap</text>
<polygon fill="#fdb462" stroke="transparent" points="310,-10 310,-30 330,-30 330,-10 310,-10"/>
<text text-anchor="start" x="333.67" y="-15.4" font-family="Times-12" font-size="14.00"> &#160;Providers</text>
<polygon fill="#fb8072" stroke="transparent" points="406,-10 406,-30 426,-30 426,-10 406,-10"/>
<text text-anchor="start" x="429.73" y="-15.4" font-family="Times-12" font-size="14.00"> &#160;Exports</text>
<g id="clust1" class="cluster">
<title>cluster_AppModule</title>
<polygon fill="none" stroke="black" stroke-dasharray="1,5" points="14.5,-146 14.5,-271 429.5,-271 429.5,-146 14.5,-146"/>
</g>
<g id="clust3" class="cluster">
<title>cluster_AppModule_imports</title>
<polygon fill="none" stroke="black" points="160.5,-154 160.5,-206 421.5,-206 421.5,-154 160.5,-154"/>
</g>
<g id="clust6" class="cluster">
<title>cluster_AppModule_providers</title>
<polygon fill="none" stroke="black" points="22.5,-154 22.5,-206 152.5,-206 152.5,-154 22.5,-154"/>
</g>
<g id="clust7" class="cluster">
<title>cluster_CategoryModule</title>
<polygon fill="none" stroke="black" stroke-dasharray="1,5" points="101.5,-70 101.5,-138 283.5,-138 283.5,-70 101.5,-70"/>
</g>
<g id="clust12" class="cluster">
<title>cluster_CategoryModule_providers</title>
<polygon fill="none" stroke="black" points="109.5,-78 109.5,-130 275.5,-130 275.5,-78 109.5,-78"/>
</g>
<g id="clust13" class="cluster">
<title>cluster_EmployeeModule</title>
<polygon fill="none" stroke="black" stroke-dasharray="1,5" points="291.5,-70 291.5,-138 481.5,-138 481.5,-70 291.5,-70"/>
</g>
<g id="clust18" class="cluster">
<title>cluster_EmployeeModule_providers</title>
<polygon fill="none" stroke="black" points="299.5,-78 299.5,-130 473.5,-130 473.5,-78 299.5,-78"/>
</g>
<!-- CategoryModule -->
<g id="node1" class="node">
<title>CategoryModule</title>
<polygon fill="#8dd3c7" stroke="black" points="278.87,-198 275.87,-202 254.87,-202 251.87,-198 168.13,-198 168.13,-162 278.87,-162 278.87,-198"/>
<text text-anchor="middle" x="223.5" y="-175.8" font-family="Times,serif" font-size="14.00">CategoryModule</text>
</g>
<!-- AppModule -->
<g id="node3" class="node">
<title>AppModule</title>
<polygon fill="#8dd3c7" stroke="black" points="265.16,-263 262.16,-267 241.16,-267 238.16,-263 181.84,-263 181.84,-227 265.16,-227 265.16,-263"/>
<text text-anchor="middle" x="223.5" y="-240.8" font-family="Times,serif" font-size="14.00">AppModule</text>
</g>
<!-- CategoryModule&#45;&gt;AppModule -->
<g id="edge1" class="edge">
<title>CategoryModule&#45;&gt;AppModule</title>
<path fill="none" stroke="black" d="M223.5,-198.11C223.5,-198.11 223.5,-216.99 223.5,-216.99"/>
<polygon fill="black" stroke="black" points="220,-216.99 223.5,-226.99 227,-216.99 220,-216.99"/>
</g>
<!-- EmployeeModule -->
<g id="node2" class="node">
<title>EmployeeModule</title>
<polygon fill="#8dd3c7" stroke="black" points="413.81,-198 410.81,-202 389.81,-202 386.81,-198 297.19,-198 297.19,-162 413.81,-162 413.81,-198"/>
<text text-anchor="middle" x="355.5" y="-175.8" font-family="Times,serif" font-size="14.00">EmployeeModule</text>
</g>
<!-- EmployeeModule&#45;&gt;AppModule -->
<g id="edge2" class="edge">
<title>EmployeeModule&#45;&gt;AppModule</title>
<path fill="none" stroke="black" d="M355.5,-198.11C355.5,-217.34 355.5,-245 355.5,-245 355.5,-245 275.27,-245 275.27,-245"/>
<polygon fill="black" stroke="black" points="275.27,-241.5 265.27,-245 275.27,-248.5 275.27,-241.5"/>
</g>
<!-- AppService -->
<g id="node4" class="node">
<title>AppService</title>
<ellipse fill="#fdb462" stroke="black" cx="87.5" cy="-180" rx="56.74" ry="18"/>
<text text-anchor="middle" x="87.5" y="-175.8" font-family="Times,serif" font-size="14.00">AppService</text>
</g>
<!-- AppService&#45;&gt;AppModule -->
<g id="edge3" class="edge">
<title>AppService&#45;&gt;AppModule</title>
<path fill="none" stroke="black" d="M87.5,-198.11C87.5,-217.34 87.5,-245 87.5,-245 87.5,-245 171.59,-245 171.59,-245"/>
<polygon fill="black" stroke="black" points="171.59,-248.5 181.59,-245 171.59,-241.5 171.59,-248.5"/>
</g>
<!-- CategoryService -->
<g id="node5" class="node">
<title>CategoryService</title>
<ellipse fill="#fdb462" stroke="black" cx="192.5" cy="-104" rx="75.28" ry="18"/>
<text text-anchor="middle" x="192.5" y="-99.8" font-family="Times,serif" font-size="14.00">CategoryService</text>
</g>
<!-- CategoryService&#45;&gt;CategoryModule -->
<g id="edge4" class="edge">
<title>CategoryService&#45;&gt;CategoryModule</title>
<path fill="none" stroke="black" d="M217.98,-121.25C217.98,-121.25 217.98,-151.76 217.98,-151.76"/>
<polygon fill="black" stroke="black" points="214.48,-151.76 217.98,-161.76 221.48,-151.76 214.48,-151.76"/>
</g>
<!-- EmployeeService -->
<g id="node6" class="node">
<title>EmployeeService</title>
<ellipse fill="#fdb462" stroke="black" cx="386.5" cy="-104" rx="79.29" ry="18"/>
<text text-anchor="middle" x="386.5" y="-99.8" font-family="Times,serif" font-size="14.00">EmployeeService</text>
</g>
<!-- EmployeeService&#45;&gt;EmployeeModule -->
<g id="edge5" class="edge">
<title>EmployeeService&#45;&gt;EmployeeModule</title>
<path fill="none" stroke="black" d="M360.51,-121.25C360.51,-121.25 360.51,-151.76 360.51,-151.76"/>
<polygon fill="black" stroke="black" points="357.01,-151.76 360.51,-161.76 364.01,-151.76 357.01,-151.76"/>
</g>
</g>
</svg>
